<svg xmlns="http://www.w3.org/2000/svg" xmlns:xlink="http://www.w3.org/1999/xlink" width="500" zoomAndPan="magnify" viewBox="0 0 375 374.999991" height="500" preserveAspectRatio="xMidYMid meet" version="1.0"><defs><clipPath id="b38777b928"><path d="M 83.679688 44.050781 L 291.429688 44.050781 L 291.429688 331.300781 L 83.679688 331.300781 Z M 83.679688 44.050781 " clip-rule="nonzero"/></clipPath></defs><rect x="-37.5" width="450" fill="#ffffff" y="-37.499999" height="449.999989" fill-opacity="1"/><rect x="-37.5" width="450" fill="#ffffff" y="-37.499999" height="449.999989" fill-opacity="1"/><rect x="-37.5" width="450" fill="#ffffff" y="-37.499999" height="449.999989" fill-opacity="1"/><g clip-path="url(#b38777b928)"><path fill="#a034d9" d="M 291.386719 56.984375 L 291.386719 318.429688 C 291.386719 325.5 285.65625 331.234375 278.59375 331.234375 L 96.460938 331.234375 C 89.394531 331.234375 83.664062 325.5 83.664062 318.429688 L 83.664062 56.984375 C 83.664062 49.914062 89.394531 44.179688 96.460938 44.179688 L 278.59375 44.179688 C 285.65625 44.179688 291.386719 49.914062 291.386719 56.984375 " fill-opacity="1" fill-rule="nonzero"/></g><path fill="#ffffff" d="M 96.460938 327.472656 C 91.476562 327.472656 87.421875 323.417969 87.421875 318.429688 L 87.421875 56.984375 C 87.421875 51.996094 91.476562 47.941406 96.460938 47.941406 L 278.59375 47.941406 C 283.574219 47.941406 287.628906 51.996094 287.628906 56.984375 L 287.628906 318.429688 C 287.628906 323.417969 283.574219 327.472656 278.59375 327.472656 L 96.460938 327.472656 " fill-opacity="1" fill-rule="nonzero"/><path fill="#242526" d="M 111.441406 92.621094 C 110.753906 91.40625 109.542969 90.652344 108.46875 89.820312 C 107.535156 89.097656 106.667969 88.289062 105.882812 87.40625 C 104.902344 86.308594 103.203125 83.546875 103.183594 83.445312 C 103.183594 83.441406 103.175781 83.441406 103.175781 83.445312 C 103.152344 83.546875 101.457031 86.308594 100.476562 87.40625 C 99.6875 88.289062 98.824219 89.097656 97.890625 89.820312 C 96.8125 90.652344 95.605469 91.40625 94.914062 92.621094 C 94.304688 93.6875 94.066406 94.980469 94.328125 96.1875 C 94.871094 98.699219 97.566406 100.707031 100.128906 99.941406 C 100.8125 99.738281 101.457031 99.410156 102.046875 99.011719 C 102.085938 98.988281 102.226562 98.90625 102.375 98.8125 C 101.839844 100.0625 100.808594 101.320312 100.199219 101.898438 C 100.035156 102.054688 100.144531 102.332031 100.371094 102.332031 L 105.984375 102.332031 C 106.210938 102.332031 106.324219 102.054688 106.15625 101.898438 C 105.550781 101.320312 104.523438 100.070312 103.992188 98.816406 C 104.136719 98.910156 104.269531 98.988281 104.308594 99.011719 C 104.902344 99.410156 105.546875 99.738281 106.230469 99.941406 C 108.792969 100.707031 111.488281 98.699219 112.027344 96.1875 C 112.289062 94.980469 112.050781 93.6875 111.441406 92.621094 " fill-opacity="1" fill-rule="nonzero"/><path fill="#242526" d="M 106.324219 67.257812 L 104.210938 61.097656 C 103.742188 59.699219 103.421875 58.425781 103.109375 57.195312 L 103.03125 57.195312 C 102.726562 58.445312 102.390625 59.753906 101.972656 61.0625 L 99.863281 67.257812 Z M 99.304688 69.417969 L 97.09375 76.144531 L 94.230469 76.144531 L 101.503906 54.746094 L 104.824219 54.746094 L 112.125 76.144531 L 109.175781 76.144531 L 106.882812 69.417969 L 99.304688 69.417969 " fill-opacity="1" fill-rule="nonzero"/><path fill="#242526" d="M 263.609375 282.792969 C 264.300781 284.003906 265.507812 284.761719 266.585938 285.59375 C 267.519531 286.316406 268.382812 287.125 269.167969 288.003906 C 270.148438 289.105469 271.847656 291.863281 271.871094 291.96875 C 271.871094 291.972656 271.875 291.972656 271.875 291.96875 C 271.898438 291.863281 273.59375 289.105469 274.578125 288.003906 C 275.363281 287.125 276.226562 286.316406 277.160156 285.59375 C 278.238281 284.761719 279.449219 284.003906 280.136719 282.792969 C 280.746094 281.726562 280.984375 280.433594 280.722656 279.226562 C 280.183594 276.714844 277.484375 274.707031 274.925781 275.472656 C 274.242188 275.675781 273.59375 276.003906 273.003906 276.402344 C 272.964844 276.425781 272.824219 276.507812 272.679688 276.601562 C 273.210938 275.351562 274.242188 274.089844 274.851562 273.515625 C 275.015625 273.359375 274.90625 273.082031 274.679688 273.082031 L 269.066406 273.082031 C 268.839844 273.082031 268.726562 273.359375 268.894531 273.515625 C 269.503906 274.089844 270.53125 275.339844 271.0625 276.597656 C 270.914062 276.503906 270.78125 276.425781 270.742188 276.402344 C 270.148438 276.003906 269.503906 275.675781 268.820312 275.472656 C 266.257812 274.707031 263.5625 276.714844 263.023438 279.226562 C 262.761719 280.433594 263 281.726562 263.609375 282.792969 " fill-opacity="1" fill-rule="nonzero"/><path fill="#242526" d="M 268.726562 308.15625 L 270.84375 314.3125 C 271.308594 315.714844 271.628906 316.988281 271.945312 318.21875 L 272.019531 318.21875 C 272.324219 316.964844 272.660156 315.660156 273.078125 314.351562 L 275.1875 308.15625 Z M 275.75 305.996094 L 277.957031 299.269531 L 280.820312 299.269531 L 273.546875 320.667969 L 270.226562 320.667969 L 262.925781 299.269531 L 265.878906 299.269531 L 268.167969 305.996094 L 275.75 305.996094 " fill-opacity="1" fill-rule="nonzero"/><path fill="#242526" d="M 230.117188 186.324219 C 226.5625 180.085938 220.332031 176.191406 214.785156 171.898438 C 209.972656 168.175781 205.511719 164.003906 201.460938 159.464844 C 196.410156 153.800781 187.65625 139.578125 187.542969 139.050781 C 187.539062 139.027344 187.511719 139.027344 187.507812 139.050781 C 187.398438 139.578125 178.644531 153.800781 173.589844 159.464844 C 169.542969 164.003906 165.078125 168.175781 160.269531 171.898438 C 154.71875 176.191406 148.488281 180.085938 144.933594 186.324219 C 141.796875 191.832031 140.570312 198.484375 141.914062 204.707031 C 144.699219 217.660156 158.59375 228.003906 171.796875 224.066406 C 175.320312 223.019531 178.644531 221.316406 181.699219 219.28125 C 181.898438 219.144531 182.617188 218.726562 183.382812 218.238281 C 180.628906 224.691406 175.3125 231.183594 172.175781 234.144531 C 171.324219 234.949219 171.898438 236.378906 173.066406 236.378906 L 201.984375 236.378906 C 203.15625 236.378906 203.730469 234.949219 202.878906 234.144531 C 199.738281 231.179688 194.449219 224.734375 191.714844 218.265625 C 192.460938 218.746094 193.15625 219.148438 193.355469 219.28125 C 196.40625 221.316406 199.730469 223.019531 203.257812 224.066406 C 216.457031 228.003906 230.351562 217.660156 233.140625 204.707031 C 234.480469 198.484375 233.253906 191.832031 230.117188 186.324219 " fill-opacity="1" fill-rule="nonzero"/><path fill="#a034d9" d="M 270.851562 260.828125 C 270.234375 260.828125 269.738281 260.328125 269.738281 259.714844 L 269.738281 72.023438 C 269.738281 68.617188 266.96875 65.84375 263.5625 65.84375 L 128.082031 65.84375 C 127.46875 65.84375 126.96875 65.347656 126.96875 64.730469 C 126.96875 64.117188 127.46875 63.621094 128.082031 63.621094 L 263.5625 63.621094 C 268.195312 63.621094 271.960938 67.386719 271.960938 72.023438 L 271.960938 259.714844 C 271.960938 260.328125 271.460938 260.828125 270.851562 260.828125 " fill-opacity="1" fill-rule="nonzero"/><path fill="#a034d9" d="M 246.964844 311.792969 L 111.488281 311.792969 C 106.855469 311.792969 103.089844 308.023438 103.089844 303.390625 L 103.089844 116.671875 C 103.089844 116.058594 103.589844 115.558594 104.203125 115.558594 C 104.816406 115.558594 105.316406 116.058594 105.316406 116.671875 L 105.316406 303.390625 C 105.316406 306.796875 108.082031 309.570312 111.488281 309.570312 L 246.964844 309.570312 C 247.578125 309.570312 248.078125 310.066406 248.078125 310.683594 C 248.078125 311.296875 247.578125 311.792969 246.964844 311.792969 " fill-opacity="1" fill-rule="nonzero"/></svg>