<svg xmlns="http://www.w3.org/2000/svg" xmlns:xlink="http://www.w3.org/1999/xlink" width="500" zoomAndPan="magnify" viewBox="0 0 375 374.999991" height="500" preserveAspectRatio="xMidYMid meet" version="1.0"><defs><clipPath id="3ed5730010"><path d="M 51.796875 0 L 323.296875 0 L 323.296875 375 L 51.796875 375 Z M 51.796875 0 " clip-rule="nonzero"/></clipPath></defs><g clip-path="url(#3ed5730010)"><path fill="#a034d9" d="M 323.238281 16.882812 L 323.238281 358.195312 C 323.238281 367.425781 315.75 374.910156 306.519531 374.910156 L 68.496094 374.910156 C 59.265625 374.910156 51.777344 367.425781 51.777344 358.195312 L 51.777344 16.882812 C 51.777344 7.652344 59.265625 0.164062 68.496094 0.164062 L 306.519531 0.164062 C 315.75 0.164062 323.238281 7.652344 323.238281 16.882812 " fill-opacity="1" fill-rule="nonzero"/></g><path fill="#ffffff" d="M 68.496094 370.003906 C 61.984375 370.003906 56.6875 364.707031 56.6875 358.195312 L 56.6875 16.882812 C 56.6875 10.371094 61.984375 5.074219 68.496094 5.074219 L 306.519531 5.074219 C 313.03125 5.074219 318.332031 10.371094 318.332031 16.882812 L 318.332031 358.195312 C 318.332031 364.707031 313.03125 370.003906 306.519531 370.003906 L 68.496094 370.003906 " fill-opacity="1" fill-rule="nonzero"/><path fill="#242526" d="M 88.078125 63.402344 C 87.175781 61.820312 85.597656 60.835938 84.191406 59.746094 C 82.972656 58.804688 81.839844 57.75 80.8125 56.597656 C 79.53125 55.164062 77.3125 51.558594 77.285156 51.425781 C 77.285156 51.421875 77.273438 51.421875 77.273438 51.425781 C 77.246094 51.558594 75.027344 55.164062 73.746094 56.597656 C 72.71875 57.75 71.585938 58.804688 70.367188 59.746094 C 68.960938 60.835938 67.382812 61.820312 66.480469 63.402344 C 65.683594 64.796875 65.371094 66.480469 65.714844 68.058594 C 66.421875 71.339844 69.945312 73.960938 73.292969 72.960938 C 74.183594 72.695312 75.027344 72.265625 75.800781 71.75 C 75.851562 71.714844 76.035156 71.609375 76.226562 71.484375 C 75.53125 73.121094 74.183594 74.761719 73.386719 75.515625 C 73.167969 75.71875 73.316406 76.082031 73.613281 76.082031 L 80.945312 76.082031 C 81.242188 76.082031 81.390625 75.71875 81.171875 75.515625 C 80.375 74.761719 79.035156 73.132812 78.339844 71.492188 C 78.53125 71.617188 78.707031 71.714844 78.757812 71.75 C 79.53125 72.265625 80.375 72.695312 81.265625 72.960938 C 84.617188 73.960938 88.136719 71.339844 88.84375 68.058594 C 89.1875 66.480469 88.875 64.796875 88.078125 63.402344 " fill-opacity="1" fill-rule="nonzero"/><path fill="#242526" d="M 81.390625 30.292969 L 78.625 22.253906 C 78.015625 20.425781 77.597656 18.761719 77.1875 17.160156 L 77.089844 17.160156 C 76.6875 18.789062 76.25 20.496094 75.703125 22.207031 L 72.945312 30.292969 Z M 72.214844 33.113281 L 69.324219 41.894531 L 65.582031 41.894531 L 75.089844 13.960938 L 79.429688 13.960938 L 88.972656 41.894531 L 85.113281 41.894531 L 82.117188 33.113281 L 72.214844 33.113281 " fill-opacity="1" fill-rule="nonzero"/><path fill="#242526" d="M 286.9375 311.671875 C 287.839844 313.253906 289.421875 314.242188 290.828125 315.328125 C 292.046875 316.273438 293.175781 317.328125 294.203125 318.476562 C 295.488281 319.914062 297.707031 323.515625 297.734375 323.648438 C 297.734375 323.65625 297.742188 323.65625 297.742188 323.648438 C 297.773438 323.515625 299.988281 319.914062 301.273438 318.476562 C 302.300781 317.328125 303.429688 316.273438 304.648438 315.328125 C 306.058594 314.242188 307.640625 313.253906 308.539062 311.671875 C 309.332031 310.277344 309.644531 308.59375 309.304688 307.019531 C 308.597656 303.738281 305.074219 301.117188 301.726562 302.113281 C 300.832031 302.378906 299.988281 302.8125 299.21875 303.328125 C 299.164062 303.359375 298.984375 303.464844 298.789062 303.589844 C 299.488281 301.957031 300.835938 300.3125 301.632812 299.5625 C 301.847656 299.355469 301.703125 298.996094 301.40625 298.996094 L 294.070312 298.996094 C 293.773438 298.996094 293.628906 299.355469 293.84375 299.5625 C 294.640625 300.3125 295.984375 301.945312 296.675781 303.582031 C 296.488281 303.464844 296.3125 303.359375 296.261719 303.328125 C 295.488281 302.8125 294.644531 302.378906 293.75 302.113281 C 290.402344 301.117188 286.878906 303.738281 286.171875 307.019531 C 285.832031 308.59375 286.144531 310.277344 286.9375 311.671875 " fill-opacity="1" fill-rule="nonzero"/><path fill="#242526" d="M 293.625 344.785156 L 296.390625 352.824219 C 297 354.652344 297.417969 356.316406 297.832031 357.921875 L 297.929688 357.921875 C 298.332031 356.285156 298.765625 354.578125 299.316406 352.871094 L 302.070312 344.785156 Z M 302.804688 341.964844 L 305.691406 333.183594 L 309.433594 333.183594 L 299.925781 361.121094 L 295.589844 361.121094 L 286.046875 333.183594 L 289.902344 333.183594 L 292.898438 341.964844 L 302.804688 341.964844 " fill-opacity="1" fill-rule="nonzero"/><path fill="#242526" d="M 243.167969 185.734375 C 238.523438 177.589844 230.382812 172.503906 223.128906 166.902344 C 216.84375 162.039062 211.011719 156.597656 205.71875 150.671875 C 199.117188 143.277344 187.679688 124.703125 187.53125 124.015625 C 187.527344 123.988281 187.492188 123.988281 187.484375 124.015625 C 187.339844 124.703125 175.898438 143.277344 169.296875 150.671875 C 164.007812 156.597656 158.175781 162.039062 151.886719 166.902344 C 144.636719 172.503906 136.492188 177.589844 131.847656 185.734375 C 127.746094 192.921875 126.148438 201.605469 127.898438 209.734375 C 131.539062 226.644531 149.699219 240.144531 166.949219 235.007812 C 171.558594 233.636719 175.902344 231.414062 179.890625 228.757812 C 180.15625 228.582031 181.09375 228.035156 182.09375 227.394531 C 178.496094 235.820312 171.546875 244.292969 167.445312 248.164062 C 166.332031 249.214844 167.085938 251.082031 168.613281 251.082031 L 206.40625 251.082031 C 207.933594 251.082031 208.683594 249.214844 207.570312 248.164062 C 203.46875 244.292969 196.558594 235.875 192.980469 227.433594 C 193.957031 228.058594 194.867188 228.585938 195.125 228.757812 C 199.113281 231.414062 203.460938 233.636719 208.066406 235.007812 C 225.316406 240.144531 243.476562 226.644531 247.121094 209.734375 C 248.871094 201.605469 247.269531 192.921875 243.167969 185.734375 " fill-opacity="1" fill-rule="nonzero"/><path fill="#a034d9" d="M 296.402344 283 C 295.597656 283 294.945312 282.347656 294.945312 281.542969 L 294.945312 36.511719 C 294.945312 32.066406 291.328125 28.449219 286.878906 28.449219 L 109.820312 28.449219 C 109.019531 28.449219 108.371094 27.796875 108.371094 26.996094 C 108.371094 26.195312 109.019531 25.542969 109.820312 25.542969 L 286.878906 25.542969 C 292.929688 25.542969 297.851562 30.464844 297.851562 36.511719 L 297.851562 281.542969 C 297.851562 282.347656 297.203125 283 296.402344 283 " fill-opacity="1" fill-rule="nonzero"/><path fill="#a034d9" d="M 265.1875 349.53125 L 88.136719 349.53125 C 82.085938 349.53125 77.164062 344.613281 77.164062 338.5625 L 77.164062 94.800781 C 77.164062 94 77.816406 93.351562 78.617188 93.351562 C 79.421875 93.351562 80.070312 94 80.070312 94.800781 L 80.070312 338.5625 C 80.070312 343.011719 83.6875 346.628906 88.136719 346.628906 L 265.1875 346.628906 C 265.988281 346.628906 266.640625 347.277344 266.640625 348.082031 C 266.640625 348.882812 265.988281 349.53125 265.1875 349.53125 " fill-opacity="1" fill-rule="nonzero"/></svg>